<svg xmlns="http://www.w3.org/2000/svg" width="174" height="171.533" viewBox="0 0 174 171.533"><g transform="translate(-843.084 -95.843)"><path d="M934.549,122.875,953.868,98.04a5.657,5.657,0,0,1,10.118,3.682l-1.165,31.442a5.658,5.658,0,0,0,6.842,5.741l30.761-6.607a5.657,5.657,0,0,1,5.384,9.326l-21.1,23.337a5.657,5.657,0,0,0,1.551,8.8l27.812,14.712a5.657,5.657,0,0,1-1.87,10.6l-31.166,4.312a5.657,5.657,0,0,0-4.465,7.735l11.849,29.147a5.657,5.657,0,0,1-8.249,6.922l-26.647-16.73a5.657,5.657,0,0,0-8.392,3.054l-9.659,29.944a5.657,5.657,0,0,1-10.768,0l-9.659-29.944a5.657,5.657,0,0,0-8.392-3.054L880,247.188a5.657,5.657,0,0,1-8.248-6.922L883.6,211.119a5.657,5.657,0,0,0-4.465-7.735l-31.166-4.312a5.657,5.657,0,0,1-1.87-10.6l27.812-14.712a5.657,5.657,0,0,0,1.551-8.8l-21.1-23.337a5.657,5.657,0,0,1,5.384-9.326l30.762,6.607a5.657,5.657,0,0,0,6.841-5.741l-1.165-31.442A5.657,5.657,0,0,1,906.3,98.04l19.318,24.835A5.657,5.657,0,0,0,934.549,122.875Z" transform="translate(0)" fill="#ecf5f5"/><g transform="translate(864.911 121.619)"><path d="M1068.351,149.918l-.125-2.771-21.81.017-12.891,14.558c-12.561,7.562-11.046,44.526-10.829,48.767l.175,3.412,3.338-.728c18.288-4,31.383-16.278,37.871-35.509A83.96,83.96,0,0,0,1068.351,149.918Zm-40.854,56.6c-.348-14.931,2.369-36.354,9.22-39.943l.473-.247,11.837-13.369,13.524-.011C1062.269,163.029,1058.17,197.493,1027.5,206.517Z" transform="translate(-938.032 -142.525)" fill="#fab748"/><path d="M914.775,161.722l-12.892-14.558-21.809-.017-.124,2.771a83.915,83.915,0,0,0,4.271,27.745c6.488,19.231,19.583,31.509,37.872,35.509l3.338.728.174-3.412C925.822,206.247,927.335,169.283,914.775,161.722Zm6.027,44.8c-14.55-4.245-25.552-14.421-31.036-30.546a80.572,80.572,0,0,1-4.021-23.024l13.526.011,11.839,13.369.471.247C918.435,170.163,921.151,191.586,920.8,206.517Z" transform="translate(-879.922 -142.525)" fill="#fab748"/><path d="M892.226,179.853a80.618,80.618,0,0,1-4.023-23.02l-2.292-.009a80.88,80.88,0,0,0,6.293,30.04c6.375,14.736,22.116,24.8,35.31,27.631l-4.272-4.034C908.693,206.215,897.711,195.98,892.226,179.853Z" transform="translate(-882.362 -146.468)" fill="#f4a148"/><path d="M1058.994,179.853a80.793,80.793,0,0,0,4.023-23.02l2.292-.009a80.863,80.863,0,0,1-6.294,30.04c-6.375,14.736-22.116,24.8-35.313,27.631l4.274-4.034C1042.527,206.215,1053.51,195.98,1058.994,179.853Z" transform="translate(-938.51 -146.468)" fill="#f4a148"/><path d="M1000.544,144.2a123.324,123.324,0,0,0-68.533,0c-1.617,49.307,15.334,79.014,34.266,79.071C985.209,223.216,1002.162,193.509,1000.544,144.2Z" transform="translate(-901.104 -139.346)" fill="#fab748"/><path d="M998.65,340.584l-3.344-19.919-24.626-3.714-24.626,3.714-3.345,19.919.189.022a2.471,2.471,0,0,0-.189.923c0,4.449,12.523,8.052,27.971,8.052s27.97-3.6,27.97-8.052a2.49,2.49,0,0,0-.186-.923Z" transform="translate(-905.506 -211.718)" fill="#903b0e"/><path d="M944.227,149.509a71.277,71.277,0,0,0-8.68,2.109,132.324,132.324,0,0,0,1.259,24l8.75-3A131.045,131.045,0,0,1,944.227,149.509Z" transform="translate(-902.554 -143.487)" fill="#fbc56d"/><path d="M949.672,205.472l-7.2,1.387c3,25.417,13.444,38.515,22.739,40.348,2.218.437,8.513,1.742,10.958-.515C976,246.7,950.8,242.617,949.672,205.472Z" transform="translate(-905.412 -166.291)" fill="#fbc56d"/><path d="M1025.474,340.87l-3.344-19.922-13.592-3.076,1.5,31.136c9.151-1.321,15.435-4.046,15.435-7.2a2.5,2.5,0,0,0-.186-.925Z" transform="translate(-932.331 -212.093)" fill="#6c2c0b"/><path d="M959.9,319.661l-3.318,28.107a60.228,60.228,0,0,0,8.466,1.557l3.66-30.991Z" transform="translate(-911.161 -212.281)" fill="#a6623e" opacity="0.4"/><path d="M997.606,320.858c0,2.333-11.027,4.22-24.626,4.22s-24.626-1.887-24.626-4.22,11.027-4.224,24.626-4.224S997.606,318.524,997.606,320.858Z" transform="translate(-907.807 -211.588)" fill="#6c2c0b"/><g transform="translate(46.603 94.975)"><path d="M995.716,313.5l-2.222-9.414-16.349-1.756-16.35,1.756-2.09,9.426a.9.9,0,0,0-.13.436c0,2.1,8.315,3.8,18.57,3.8s18.571-1.7,18.571-3.8a.9.9,0,0,0-.131-.436Z" transform="translate(-958.575 -300.735)" fill="#db822a"/><path d="M995.021,302.988c0,1.85-7.319,3.351-16.349,3.351s-16.35-1.5-16.35-3.351,7.321-3.35,16.35-3.35S995.021,301.14,995.021,302.988Z" transform="translate(-960.102 -299.638)" fill="#fab748"/></g><path d="M989.792,262.892H977.064s5.189,15.921-3.073,25.9a34.74,34.74,0,0,0,9.5,1.184c7.4,0,9.877-1.248,9.877-1.248C985.108,278.75,989.792,262.892,989.792,262.892Z" transform="translate(-918.254 -189.689)" fill="#fab748"/><path d="M967.087,308.937l-2.531,9.936a20.306,20.306,0,0,0,5.139.986l2.048-10.142Z" transform="translate(-914.409 -208.452)" fill="#e29b55"/><g transform="translate(45.643 16.714)"><path d="M994.281,184.57a6.039,6.039,0,0,1-2.1-2.364,6.212,6.212,0,0,1,.3-3.253c.31-1.184.63-2.408.159-3.057s-1.754-.732-2.986-.8a4.047,4.047,0,0,1-4.788-3.472c-.449-1.16-.913-2.359-1.7-2.614-.718-.233-1.789.43-2.812,1.085a4.2,4.2,0,0,1-6.095,0c-1.023-.656-2.1-1.318-2.812-1.085-.79.255-1.254,1.455-1.7,2.614a4.043,4.043,0,0,1-4.788,3.472c-1.231.069-2.5.143-2.983.8s-.151,1.873.159,3.057a6.242,6.242,0,0,1,.3,3.252,6.066,6.066,0,0,1-2.1,2.366c-.975.792-1.981,1.611-1.981,2.468s1.007,1.674,1.981,2.468a6.067,6.067,0,0,1,2.1,2.363,6.239,6.239,0,0,1-.3,3.254c-.311,1.184-.63,2.409-.159,3.057s1.753.73,2.983.8a6.186,6.186,0,0,1,3.162.707,6.093,6.093,0,0,1,1.626,2.764c.449,1.161.914,2.361,1.7,2.618.717.231,1.789-.434,2.812-1.088a4.2,4.2,0,0,1,6.095,0c1.023.654,2.1,1.319,2.81,1.088.793-.258,1.257-1.457,1.706-2.617a4.045,4.045,0,0,1,4.788-3.472c1.231-.072,2.5-.144,2.986-.8s.151-1.873-.159-3.057a6.189,6.189,0,0,1-.3-3.251,6.05,6.05,0,0,1,2.1-2.367c.974-.793,1.982-1.614,1.982-2.467S995.255,185.364,994.281,184.57Z" transform="translate(-957.524 -168.128)" fill="#f9c876"/><path d="M994.233,183.354a5.615,5.615,0,0,1-1.83-1.977,5.755,5.755,0,0,1,.317-2.787c.356-1.372.726-2.788.024-3.755s-2.184-1.061-3.608-1.143a3.3,3.3,0,0,1-4.06-2.941c-.521-1.341-1.058-2.726-2.222-3.107a1.926,1.926,0,0,0-.594-.091,6.111,6.111,0,0,0-2.924,1.27,3.453,3.453,0,0,1-5.2,0,6.1,6.1,0,0,0-2.923-1.27,1.908,1.908,0,0,0-.591.091c-1.166.379-1.7,1.765-2.223,3.1a3.3,3.3,0,0,1-4.062,2.943c-1.425.082-2.9.167-3.607,1.143s-.332,2.383.025,3.753a5.782,5.782,0,0,1,.318,2.788,5.636,5.636,0,0,1-1.834,1.977c-1.126.914-2.287,1.863-2.287,3.113s1.162,2.2,2.287,3.112a5.62,5.62,0,0,1,1.834,1.977,5.78,5.78,0,0,1-.318,2.787c-.359,1.37-.729,2.788-.025,3.754s2.182,1.062,3.607,1.143a5.705,5.705,0,0,1,2.72.549,5.616,5.616,0,0,1,1.339,2.393c.521,1.34,1.057,2.726,2.224,3.107a1.976,1.976,0,0,0,.592.091,6.1,6.1,0,0,0,2.923-1.269,3.453,3.453,0,0,1,5.2,0,6.123,6.123,0,0,0,2.924,1.267,1.954,1.954,0,0,0,.591-.091c1.167-.379,1.7-1.765,2.224-3.1a5.634,5.634,0,0,1,1.34-2.394,5.693,5.693,0,0,1,2.72-.549c1.424-.081,2.9-.167,3.607-1.143s.333-2.384-.024-3.753a5.73,5.73,0,0,1-.316-2.788,5.587,5.587,0,0,1,1.833-1.977c1.124-.916,2.287-1.861,2.287-3.112S995.359,184.268,994.233,183.354Zm-.523,5.58a6.05,6.05,0,0,0-2.1,2.367,6.189,6.189,0,0,0,.3,3.251c.309,1.184.63,2.409.159,3.057s-1.754.73-2.986.8a4.045,4.045,0,0,0-4.788,3.472c-.449,1.16-.913,2.359-1.706,2.617-.714.231-1.787-.434-2.81-1.088a4.2,4.2,0,0,0-6.095,0c-1.023.654-2.1,1.319-2.812,1.088-.79-.258-1.255-1.457-1.7-2.618a6.093,6.093,0,0,0-1.626-2.764,6.186,6.186,0,0,0-3.162-.707c-1.231-.071-2.5-.143-2.983-.8s-.152-1.873.159-3.057a6.239,6.239,0,0,0,.3-3.254,6.067,6.067,0,0,0-2.1-2.363c-.975-.794-1.981-1.615-1.981-2.468s1.007-1.676,1.981-2.468a6.066,6.066,0,0,0,2.1-2.366,6.242,6.242,0,0,0-.3-3.252c-.31-1.184-.631-2.409-.159-3.057s1.752-.732,2.983-.8a4.043,4.043,0,0,0,4.788-3.472c.45-1.16.914-2.359,1.7-2.614.716-.233,1.789.43,2.812,1.085a4.2,4.2,0,0,0,6.095,0c1.023-.656,2.095-1.318,2.812-1.085.79.255,1.254,1.455,1.7,2.614a4.047,4.047,0,0,0,4.788,3.472c1.231.069,2.5.143,2.986.8s.152,1.873-.159,3.057a6.212,6.212,0,0,0-.3,3.253,6.039,6.039,0,0,0,2.1,2.364c.974.794,1.982,1.613,1.982,2.47S994.684,188.141,993.71,188.934Z" transform="translate(-956.954 -167.554)" fill="#fbd698"/><path d="M994.749,189.766a14.112,14.112,0,1,1-14.112-14.112A14.112,14.112,0,0,1,994.749,189.766Z" transform="translate(-960.854 -170.855)" fill="#fde3a3"/><path d="M985.164,179.619a14.053,14.053,0,0,1,6.788,1.74,14.105,14.105,0,1,0-18.1,20.778,14.094,14.094,0,0,1,11.316-22.518Z" transform="translate(-960.854 -170.855)" fill="#fde9b5"/><g transform="translate(16.73 10.409)"><path d="M990.12,199.889a3.376,3.376,0,0,0,.226,1.164,1.2,1.2,0,0,0,.571.629,2.506,2.506,0,0,0,1.093.19h.236v1.069h-7.031v-1.069a3.167,3.167,0,0,0,1.224-.19,1.221,1.221,0,0,0,.642-.629,3.247,3.247,0,0,0,.238-1.164q.035-.725.036-1.818v-8.078q0-1.092-.036-1.818a3.422,3.422,0,0,0-.227-1.165,1.206,1.206,0,0,0-.571-.629,2.507,2.507,0,0,0-1.091-.19h-.239v-1.07h4.9v12.949Q990.084,199.163,990.12,199.889Z" transform="translate(-985.189 -185.122)" fill="#f88b54"/></g></g></g></g></svg>