<svg xmlns="http://www.w3.org/2000/svg" xmlns:xlink="http://www.w3.org/1999/xlink" width="327.458" height="239.778" viewBox="0 0 327.458 239.778"><defs><linearGradient id="a" y1="0.5" x2="1" y2="0.5" gradientUnits="objectBoundingBox"><stop offset="0" stop-color="#dbfcff"/><stop offset="1" stop-color="#2cccd3"/></linearGradient></defs><g transform="translate(-151.258 -273)"><path d="M394.724,382.638c-.4-.011-.6-.035-.6-.035s-.021-1.3.093-3.575c-.495-3.285-1.006-6.113-1.285-7.655a18.527,18.527,0,0,1-9.983,2.887,32.067,32.067,0,0,1-11.467-1.971c-.641,3.531-2.659,16.412-3.531,21.772s-2.429,23.056-2.7,27.6,0,20.625,0,20.625a4.212,4.212,0,0,0,2.565,1.1,3.2,3.2,0,0,0,2.058-.349,1.013,1.013,0,0,0,.143-.108s1.375-6.051,2.292-13.842,3.208-18.29,4.081-23.836,3.3-16.363,3.8-18.518,1.147-4.18,1.789-4.083,2.337,6.466,2.841,11.6,1.787,16.318,2.245,23.056,1.284,12.422,1.79,17.51a65.426,65.426,0,0,0,1.606,9.183c.026.106.042.168.042.168s2.685.4,3.546-.521a.365.365,0,0,1,.031-.029s1.283-15.723,1.191-23.607.006-19.254.229-26.219A75.587,75.587,0,0,0,394.724,382.638Z" transform="translate(51.954 23.897)" fill="#5e6d88"/><path d="M440.541,291.951l-1.794-16.337a2.933,2.933,0,0,0-3.981-2.414l-16.173,6.3a2.933,2.933,0,1,0,2.129,5.465l8.376-3.263L360.019,401.427l-61.293-73.763a2.938,2.938,0,0,0-2.168-1.058,2.905,2.905,0,0,0-2.227.925l-110.2,117.419-27.751-30.969a2.933,2.933,0,0,0-4.37,3.914l29.886,33.353a2.935,2.935,0,0,0,2.15.977h.035a2.937,2.937,0,0,0,2.139-.926L296.336,333.969,358.2,408.416a2.936,2.936,0,0,0,4.8-.409l70.891-122.867.818,7.45a2.935,2.935,0,0,0,2.912,2.615,2.873,2.873,0,0,0,.324-.019A2.938,2.938,0,0,0,440.541,291.951Z" fill="url(#a)"/><g transform="translate(449.195 415.633)"><path d="M418.145,481.889l-27.181-93.52,2.112-.614,27.409,94.133Z" transform="translate(-390.964 -387.756)" fill="#2cccd3"/></g><path d="M226.468,389.466c-1.987-.092-2.6-.7-4.585-.61s-3.025,1.985-3.642,3.6c-.265.691-.479,1.217-.587,1.621.256,0,.4.295.477.747.01.051.017.107.026.163a13.157,13.157,0,0,1,1.648-1.644,3.681,3.681,0,0,1,.635-.329,6.257,6.257,0,0,1,1.592-.2,6.553,6.553,0,0,1,1.134.226c1.31.374,1.966,1.427,3.294,1.52a2.847,2.847,0,0,0,.618-.022,3.2,3.2,0,0,0,2.688-2.9C229.889,390.5,228.452,389.558,226.468,389.466Z" transform="translate(16.129 28.142)" fill="#879dcc"/><path d="M217.962,393.877a.276.276,0,0,0,.121-.055c-.009-.056-.016-.112-.026-.163C218.023,393.732,217.989,393.8,217.962,393.877Z" transform="translate(16.204 29.311)" fill="#8c8cc8"/><path d="M226.673,393.785a10.8,10.8,0,0,1-1.429,4.731,5.052,5.052,0,0,1-1.679,1.723,3.057,3.057,0,0,1-.763.338,3.8,3.8,0,0,1-2.706-.094,3.108,3.108,0,0,1-1.226-1.028,4.435,4.435,0,0,1-.594-1.137,6.945,6.945,0,0,1-.352-1.994,1.221,1.221,0,0,1-1.049-.639,2.14,2.14,0,0,1,.609-2.229.676.676,0,0,1,.382-.148c.263,0,.4.295.483.741-.036.075-.066.147-.094.221a.347.347,0,0,0,.117-.052,13.246,13.246,0,0,1,1.651-1.642,3.548,3.548,0,0,1,.638-.338,6.17,6.17,0,0,1,1.591-.2,6.235,6.235,0,0,1,1.13.227C224.693,392.642,225.346,393.691,226.673,393.785Z" transform="translate(15.914 28.917)" fill="#ecb7b0"/><path d="M218.7,398.006a13.615,13.615,0,0,0-1.07,1.291c-.126.183-.2.326-.188.382.058.183,1,.672,1.494.275.072-.058.154-.131.24-.209.247-.221.526-.493.748-.715A3.1,3.1,0,0,1,218.7,398.006Z" transform="translate(16.078 30.367)" fill="#ecb7b0"/><path d="M185.14,414.052a8.251,8.251,0,0,0-2.337-1.559c-.459-.046.6,1.468.6,1.468s-1.879-1.561-2.292-1.469c-.189.044-.071.328.221.68a14.732,14.732,0,0,1,1.613,1.247,5.118,5.118,0,0,1-1.613-1.247c-.454-.286-.861-.457-1-.267-.368.506,2.979,2.981,2.979,2.981s-2.716-2.016-3.009-1.421,3.009,2.338,3.009,2.338-1.467-.092-1.284.5,4.649,1.171,4.6.984c-.021.007-.045.017-.066.024C186.562,418.314,184.682,417.58,185.14,414.052Z" transform="translate(7.05 33.885)" fill="#ecb7b0"/><path d="M182.736,414.285a14.732,14.732,0,0,0-1.613-1.247A5.119,5.119,0,0,0,182.736,414.285Z" transform="translate(7.255 34.018)" fill="#8c8cc8"/><path d="M232.563,416.993c-4.027,3.411-15.174,9.264-17.227,10.334l-.015.007c-.206.1-.316.162-.316.162l-.917.91a.8.8,0,0,1-.153.08.543.543,0,0,1-.081.036c-.733.3-3.286.962-8.471-1.349-6.285-2.8-10.591-8.756-10.591-8.756l.433-.469,1.409-1.549.036-.044s-7.334,4.21-10.98,5.522l-.065.021s-1.878-.733-1.423-4.259a49.132,49.132,0,0,0,6.652-4.951c4.994-4.262,12.467-10.994,17.183-13.288,4.7-2.288,10.208-2.15,17.689-.039a.851.851,0,0,0-.191.382c.06.184,1.006.675,1.5.278.075-.058.154-.13.242-.213,6.452,1.922,8.845,3.278,9.226,6.872C236.919,410.532,237.007,413.239,232.563,416.993Z" transform="translate(7.986 30.3)" fill="#ecf5f5" stroke="#5e6d88" stroke-miterlimit="10" stroke-width="0.5"/><path d="M179.5,460.507c.01-.05.027-.117.045-.183h0a3.8,3.8,0,0,0-.319,2.292c.184.367.733,1.327,4.171,1.877s4.4.735,4.538.231c.129-.476-1.644-2.9-3.96-3.755a6.551,6.551,0,0,1-2.778.59A1.8,1.8,0,0,1,179.5,460.507Z" transform="translate(6.775 45.505)" fill="#879dcc"/><path d="M216.08,462.99c-1.376-.092-2.568-.229-2.568-.229s-.021-.045-.087-.19h0c.087.19-.318,2.3,0,2.574s2.518-.047,4.489,0,4.491-.281,4.537-.529a11.217,11.217,0,0,0-4.839-2.629c.075.347.118.544.118.544S217.455,463.082,216.08,462.99Z" transform="translate(15.072 45.909)" fill="#879dcc"/><path d="M225.84,473.554c-.465-2.154-2.215-10.291-3.32-15.82-1.284-6.417-4.768-19.158-5.96-25.072-.8-3.99-1.315-6.785-1.562-8.185-.735.3-3.29.959-8.474-1.349-6.282-2.8-10.59-8.755-10.59-8.755-1.146,1.33-2.8,3.987-4.217,12.788a184.132,184.132,0,0,1-4.216,19.206c-1.076,4.078-7.276,22.215-8.022,25.119-.017.066-.035.133-.045.183a1.8,1.8,0,0,0,1.7,1.053,6.551,6.551,0,0,0,2.778-.59l.109-.051s7.609-11.733,10.176-18.333,4.629-13.11,6.463-18.29,2.521-7.425,3.53-6.83,1.283,1.6,4.4,11.138,9.4,25.762,11.138,29.886c1.265,3,1.755,4.1,1.929,4.486.066.145.087.19.087.19s1.192.137,2.568.229,1.651-.459,1.651-.459S225.914,473.9,225.84,473.554Z" transform="translate(6.845 34.343)" fill="#5e6d88"/><path d="M304.949,370.022a5.831,5.831,0,0,0-4.584-.574c-1.259.506-1.787,1.444-3.8,1.812-1.248.226-1.055,3.071,1.1,3.849.109.04.216.071.321.1,1.966.543,3.2-.68,3.988-1.245a2.413,2.413,0,0,1,3.186.8c.528,1.1.87,2.337,1.121,2.245.181-.066.429-.031.6-.805a9.007,9.007,0,0,0,.159-1.418A5.175,5.175,0,0,0,304.949,370.022Z" transform="translate(35.11 23.369)" fill="#4763a0"/><path d="M306.968,376.577c-.044,1.122-.895,1.025-.895,1.025a7.883,7.883,0,0,1-2,3.882,3.3,3.3,0,0,1-.946.534,3.17,3.17,0,0,1-1.765.169,3.229,3.229,0,0,1-1.607-.822h-.007a3.513,3.513,0,0,1-.528-.594,6.832,6.832,0,0,1-.646-1.136c-.841-1.8-1.3-4.225-1.012-5.3h.009c1.966.544,3.2-.681,3.99-1.245a2.4,2.4,0,0,1,3.182.8c.529,1.1.873,2.339,1.121,2.243.178-.066.426-.03.594-.8C306.748,375.425,307,375.778,306.968,376.577Z" transform="translate(35.52 24.241)" fill="#ecb7b0"/><path d="M302.415,380.217a3.181,3.181,0,0,1-1.762.165l-.227-.053c0-.011-.017.717.029,1.626.071,1.357.311,3.084,1.056,3.038.631-.038.835-1.678.894-3.1C302.429,381.22,302.422,380.6,302.415,380.217Z" transform="translate(36.235 26.045)" fill="#ecb7b0"/><path d="M336.365,396.771a47.733,47.733,0,0,0-1.245-9.977l-3.348,2.042a1.12,1.12,0,0,0-.052.113s0,6.355-.184,7.884-.365,4.4-2.077,2.506-7.64-8.847-9.6-9.953c-1.419-.807-7.987-.671-12.955-.515-.058,1.424-.262,3.064-.894,3.1-.746.046-.986-1.68-1.056-3.038-1.053.034-1.964.063-2.634.075-3.851.06-9.488-.172-11.184-4.767-1.622-4.4-1.649-13.447.549-20.78s4.339-9.167,4.339-9.167-3.407-2.012-4.4-2.816a45.749,45.749,0,0,0-9.106,19.99c-1.833,10.327.672,17.052,2.751,20.5s5.132,4.98,7.577,6.2,2.567,2.139,2.567,5.439v18.4s3.974,1.284,12.224,1.223,12.65-1.588,12.832-1.711c.039-.025.048-.221.034-.558h0c-.047-1.325-.436-4.908-.827-9.587-.49-5.868-.733-11.8-.184-12.468,0,0,.491-.916,2.078,1.283s6.969,9.963,10.939,8.74S336.365,401.966,336.365,396.771Z" transform="translate(31.732 19.065)" fill="#5e6d88"/><path d="M294.681,464.438a2.776,2.776,0,0,1-2.688-.978s-.016-.114-.04-.319c-1.745,0-4.039.669-4.605,1.235-.61.61.367,1.529,3.116,1.406s6.478-.126,6.783-.583c.214-.316.011-.984-.232-1.5C296.8,464.019,296.261,464.288,294.681,464.438Z" transform="translate(33.017 46.189)" fill="#5e6d88"/><path d="M315.653,465.084a2.923,2.923,0,0,1-2.55-.64c-.108.735-.067,1.693.229,1.863.428.246,8.19.426,9.41,0,1.178-.414-.641-2.569-4.882-3.064,0,.267-.007.439-.007.5C317.852,464.29,317,464.717,315.653,465.084Z" transform="translate(39.303 46.214)" fill="#5e6d88"/><path d="M320.836,424.517c-1.039-9.327-2.409-16.709-2.447-16.684-.181.123-4.583,1.651-12.832,1.711s-12.224-1.223-12.224-1.223a142.148,142.148,0,0,0-2.322,22.125c-.549,13.934-.488,22.978-.549,31.779a118.971,118.971,0,0,0,.694,14.35c.024.205.04.319.04.319a2.776,2.776,0,0,0,2.688.978c1.58-.149,2.118-.419,2.333-.742a.872.872,0,0,0,.112-.236c.121-.429,1.894-13.2,2.81-22.98s1.254-12.987,1.559-17.509,2.046-14.577,2.9-16.961,1.649-4.888,3.79-4.217,2.323,6.356,3.911,13.814,3.788,21.636,4.462,27.989,2.567,20.7,2.812,20.861a.144.144,0,0,1,.016.012,2.923,2.923,0,0,0,2.55.64c1.345-.367,2.2-.794,2.2-1.344,0-.058,0-.23.007-.5.031-2.35.185-12.4.239-21.566C323.646,444.931,321.874,433.87,320.836,424.517Z" transform="translate(33.815 32.754)" fill="#ecf5f5" stroke="#5e6d88" stroke-miterlimit="10" stroke-width="0.5"/><path d="M324.709,377.56c-.081.456-.124.79-.124.79C324.641,378.052,324.679,377.795,324.709,377.56Z" transform="translate(42.105 25.4)" fill="#8c8cc8"/><path d="M326.128,375.507a6.941,6.941,0,0,0-.793,2.574c-.03.235-.068.492-.124.791,0,0,.043-.334.124-.791.261-2.081-.426-1.807-.674-.86-.276,1.054-.641,2.659-.641,2.659.457-2.384-.641-1.283-.825-.23s-1.33,3.119-1.172,3.375v0l3.348-2.042h0a5.1,5.1,0,0,0,1.245-2.2C327.155,377.174,326.678,374.929,326.128,375.507Z" transform="translate(41.479 24.879)" fill="#ecb7b0"/><path d="M294.743,354.136l-2.476-3.085c.218.6.261,1.069,0,1.115-.786.133-3.167-3.919-2.307-3.99a1.091,1.091,0,0,0-1.221,1.1,7.407,7.407,0,0,0,1.221,3h0l4.4,2.816Z" transform="translate(33.398 18.262)" fill="#ecb7b0"/><path d="M289.723,351.48c.993.8,4.4,2.816,4.4,2.816Z" transform="translate(33.636 19.065)" fill="#8c8cc8"/><path d="M292.065,351.051c-.43-1.2-1.552-2.935-2.307-2.875-.86.071,1.521,4.123,2.307,3.99C292.326,352.12,292.282,351.653,292.065,351.051Z" transform="translate(33.6 18.262)" fill="#ecb7b0"/><path d="M388.61,380.532s-1.008,2.476-.733,2.981,1.1-1.377,1.284-1.49-.093,3.644.273,3.551.919-3.116.919-3.116-.367,4.217,0,4.263.919-3.849.919-3.849-.185,2.7.272,2.749.689-2.887.689-2.887-.183,1.787.414,1.557.465-3.975.465-3.975S389.619,379.249,388.61,380.532Z" transform="translate(57.468 25.968)" fill="#ecb7b0"/><path d="M385.293,339.923c-.367-2.292-1.465-3.851-3.941-3.806s-7.014.733-6.417,3.071a1.86,1.86,0,0,0,1.249,1.1,3.325,3.325,0,0,0,2.693-.23c1.786-.962,4.216-.229,4.673.824s.414,2.751.963,2.567c.331-.108.672-.541.817-1.357A6.488,6.488,0,0,0,385.293,339.923Z" transform="translate(54.323 15.332)" fill="#879dcc"/><path d="M385.379,342.779c-.088,1.482-1.142,1.546-1.142,1.546.085,2.429-1.228,4.049-2.957,4.468a4.111,4.111,0,0,1-1.833,0,5.081,5.081,0,0,1-1.349-.521,3.635,3.635,0,0,1-1.438-1.577,6.591,6.591,0,0,1-.6-1.827,20.206,20.206,0,0,1-.1-5.264,3.315,3.315,0,0,0,2.693-.229c1.789-.961,4.217-.226,4.671.828s.418,2.743.961,2.569c.337-.112.675-.544.82-1.365A2.567,2.567,0,0,1,385.379,342.779Z" transform="translate(54.554 16.016)" fill="#ecb7b0"/><path d="M378.752,346.863c-.022.322-.041.692-.05,1.075-.029,1.311.086,2.758.8,2.758.574,0,.851-1.442.983-2.681.046-.433.073-.838.092-1.152A4.006,4.006,0,0,1,378.752,346.863Z" transform="translate(55.251 17.943)" fill="#ecb7b0"/><path d="M345.3,348.413a8.234,8.234,0,0,0-.578-2.67c-.4-.454-.354,1.242-.354,1.242s-1.362-2.958-1.914-2.706c-.435.2.272,1.815.6,2.508l.154.317s-.062-.124-.154-.317c-.4-.8-1.447-2.819-1.812-2.523-.454.368,1.411,3.445,1.411,3.445s-1.561-2.27-1.966-2.119c-.3.114.563,1.909,1.01,2.729a1.559,1.559,0,0,1,.251.4c0,.039-.1-.128-.251-.4-.434-.58-1.3-1.567-1.564-1.418-.353.2,1.454,3.516,1.454,3.516s.824-.367,1.559-.733S345.3,348.413,345.3,348.413Z" transform="translate(45.87 17.304)" fill="#ecb7b0"/><path d="M342.471,346.288c.092.193.154.317.154.317Z" transform="translate(46.45 17.803)" fill="#8c8cc8"/><path d="M341.63,347.919a1.559,1.559,0,0,0-.251-.4C341.527,347.791,341.63,347.957,341.63,347.919Z" transform="translate(46.185 18.103)" fill="#8c8cc8"/><path d="M407.249,354.826c-1.97-5.5-4.4-6.186-9.533-6.532-1.781-.119-4.823-.307-8.139-.457-.132,1.239-.409,2.681-.983,2.681-.718,0-.833-1.447-.8-2.758-5.766-.229-11.811-.295-13.222.329-2.384,1.053-9.168,6.737-14.255,7.242S349.037,351.138,345,347.6c0,0-1.421.9-2.154,1.271s-1.559.733-1.559.733c.367.917,5.868,8.2,11.5,10.633a20.837,20.837,0,0,0,14.348.551,40.852,40.852,0,0,0,7.425-3.208c.367-.321,1.008-.5,1.375,1.789.451,2.815.183,5.178.735,10.175s.6,8.525.6,8.525a32.068,32.068,0,0,0,11.467,1.971,18.527,18.527,0,0,0,9.983-2.887s.414-8.068.6-11.917.367-7.517.963-7.059,1.283,4.951.962,9.808-.641,9.076-1.009,13.431c-.108,1.294-.179,2.429-.227,3.392-.114,2.279-.093,3.575-.093,3.575s.2.024.6.035,1.025.011,1.877-.035a5.517,5.517,0,0,1,1.925.042,67.435,67.435,0,0,0,3.714-15.215C409.176,364.316,409.22,360.326,407.249,354.826Z" transform="translate(46.163 18.121)" fill="#ecf5f5" stroke="#5e6d88" stroke-miterlimit="10" stroke-width="0.5"/><g transform="translate(409.777 380.958)"><path d="M399.724,395.575a.731.731,0,0,1-.7-.533l-9.614-33.717H368.992l-8.3,33.691a.733.733,0,0,1-1.423-.351l8.433-34.249a.732.732,0,0,1,.712-.558H389.96a.734.734,0,0,1,.706.532l9.764,34.249a.735.735,0,0,1-.5.906A.714.714,0,0,1,399.724,395.575Z" transform="translate(-359.251 -359.858)" fill="#aadb1e"/></g><g transform="translate(409.41 415.939)"><rect width="38.138" height="3.667" transform="translate(2.2 0.019)" fill="#2cccd3"/><g transform="translate(1.971 24.675)"><rect width="38.366" height="3.669" transform="translate(0 1.012)" fill="#2cccd3"/><rect width="38.366" height="1.171" fill="#dbfcff"/></g><g transform="translate(1.528 52.636)"><rect width="38.256" height="3.666" transform="translate(0 1.012)" fill="#2cccd3"/><rect width="38.256" height="1.169" fill="#dbfcff"/></g><g transform="translate(1.528 76.745)"><rect width="38.809" height="3.667" transform="translate(0 1.014)" fill="#2cccd3"/><rect width="38.809" height="1.171" fill="#dbfcff"/></g><rect width="2.2" height="94.002" fill="#2cccd3"/><g transform="translate(39.635)"><rect width="2.2" height="94.002" fill="#2cccd3"/></g></g><path d="M368.4,429.523a4.212,4.212,0,0,1-2.565-1.1c-.5.205-3.085,1.453-3.117,2.186s2.292,1.223,4.34.733a12.088,12.088,0,0,0,3.665-1.621,1.563,1.563,0,0,0-.122-.656A3.509,3.509,0,0,1,368.4,429.523Z" transform="translate(51.368 37.756)" fill="#879dcc"/><path d="M385.569,430.038s-.016-.062-.042-.168h0a2.9,2.9,0,0,0,0,1.4c.058.016,3.452,2.614,5.435,1.912,1.854-.657-.551-2.857-1.847-3.669C388.253,430.439,385.569,430.038,385.569,430.038Z" transform="translate(56.889 38.022)" fill="#879dcc"/><g transform="translate(233.431 423.096)"><path d="M217.462,395.11a.081.081,0,0,1-.047-.014.092.092,0,0,1-.03-.127,1.435,1.435,0,0,0-.007-1.083.091.091,0,1,1,.169-.067,1.58,1.58,0,0,1-.006,1.247A.093.093,0,0,1,217.462,395.11Z" transform="translate(-217.371 -393.761)" fill="#dc847f"/></g><g transform="translate(203.211 434.004)"><path d="M210.3,402.859c-.066.06-6.643,5.494-10.406,8.485-1.438,1.136-2.5,1.995-3.382,2.707-1.349,1.091-2.273,1.847-3.454,2.728l1.409-1.549c.557-.439,1.129-.91,1.818-1.467.88-.711,1.943-1.569,3.373-2.715,3.762-2.983,10.34-8.417,10.406-8.469a.179.179,0,0,1,.257.022A.184.184,0,0,1,210.3,402.859Z" transform="translate(-193.057 -402.536)" fill="#8c8cc8"/><g transform="translate(18.684 8.111)"><path d="M224.17,409.378c-.045.044-4.409,4.217-8.663,8.705-2.839,2.993-4.855,5.207-5.991,6.491l-.015.007c-.206.1-.316.162-.316.162l-.917.91a.8.8,0,0,1-.153.08.156.156,0,0,1,.029-.2c.117-.127.425-.471.895-.991,1.115-1.232,3.189-3.536,6.2-6.712,4.261-4.488,8.625-8.668,8.668-8.712a.178.178,0,0,1,.259.007A.185.185,0,0,1,224.17,409.378Z" transform="translate(-208.089 -409.062)" fill="#8c8cc8"/></g></g></g></svg>